<svg width="26" height="26" viewBox="0 0 26 26" fill="none" xmlns="http://www.w3.org/2000/svg">
<circle cx="13" cy="13" r="3.25" stroke="white" stroke-width="2"/>
<path d="M5.47967 6.02706C4.42052 7.16864 3.65142 8.52339 3.20361 9.97482L5.19313 11.1235C6.63757 11.9574 6.63758 14.0423 5.19313 14.8763L3.20166 16.026C3.42404 16.7438 3.72931 17.4481 4.12085 18.1262C4.51238 18.8044 4.96968 19.4209 5.48005 19.9723L7.47156 18.8225C8.916 17.9886 10.7216 19.031 10.7216 20.6989V22.9963C12.2024 23.3342 13.7602 23.3455 15.2784 22.9991L15.2785 20.699C15.2784 19.0311 17.084 17.9887 18.5284 18.8226L20.5204 19.9727C21.5795 18.8311 22.3486 17.4763 22.7964 16.0249L20.8068 14.8762C19.3624 14.0422 19.3624 11.9574 20.8068 11.1234L22.7984 9.97361C22.576 9.2559 22.2707 8.55161 21.8792 7.87346C21.4876 7.19529 21.0303 6.57877 20.5199 6.02732L18.5285 7.1771C17.084 8.01105 15.2785 6.96861 15.2785 5.30071V3.0034C13.7976 2.6655 12.2398 2.65418 10.7216 3.00065L10.7216 5.30069C10.7216 6.96859 8.916 8.01102 7.47156 7.17707L5.47967 6.02706Z" stroke="white" stroke-width="2" stroke-linejoin="round"/>
</svg>
